<svg width="305" height="934" viewBox="0 0 305 934" fill="none" xmlns="http://www.w3.org/2000/svg">
<path fill-rule="evenodd" clip-rule="evenodd" d="M-68.8787 894.349C-146.952 896.085 -221.135 948.262 -296.078 917.653C-381.723 882.674 -473.391 819.8 -505.187 716.149C-536.743 613.28 -472.609 512.189 -452.641 407.278C-433.229 305.286 -447.272 187.134 -389.969 110.798C-330.399 31.4438 -236.706 -1.52082 -147.101 0.259064C-61.8682 1.95211 10.379 68.1393 85.7482 120.248C164.355 174.594 274.71 204.365 300.47 309.698C326.512 416.184 225.761 499.327 204.365 605.274C184.146 705.393 242.962 840.285 179.83 907.074C116.666 973.898 15.9805 892.463 -68.8787 894.349Z" fill="#F9B300"/>
</svg>
