<svg width="1453" height="1749" viewBox="0 0 1453 1749" fill="none" xmlns="http://www.w3.org/2000/svg">
<path fill-rule="evenodd" clip-rule="evenodd" d="M851.406 156.43C973.712 188.517 1113.35 132.774 1215.79 218.652C1332.85 316.795 1446.35 465.246 1447.77 656.407C1449.17 846.127 1302.49 989.857 1222.76 1159.93C1145.26 1325.28 1112.32 1533.22 987.745 1637.76C858.242 1746.45 697.147 1760.64 558.527 1717.38C426.669 1676.23 344.929 1530.84 251.801 1408.08C154.673 1280.05 -3.25936 1179.7 5.49784 988.379C14.3508 794.962 209.698 698.3 292.125 527.098C370.018 365.313 341.04 108.707 470.259 23.0657C599.545 -62.6195 718.471 121.555 851.406 156.43Z" fill="#F9B300"/>
</svg>
