<svg width="102" height="499" viewBox="0 0 102 499" fill="none" xmlns="http://www.w3.org/2000/svg">
<path fill-rule="evenodd" clip-rule="evenodd" d="M-118.4 29.6308C-77.8133 32.4041 -36.8724 8.80815 0.56891 28.2251C43.3572 50.4149 87.9582 87.3692 99.5791 142.674C111.112 197.562 73.0846 247.024 57.7906 300.548C42.9222 352.582 44.6509 414.58 11.3308 451.512C-23.3068 489.904 -73.4665 502.608 -119.87 497.467C-164.011 492.577 -198.38 454.816 -235.032 424.218C-273.257 392.305 -329.11 371.657 -337.521 315.762C-346.023 259.256 -289.842 220.835 -273.758 166.841C-258.56 115.817 -282.729 43.0219 -246.835 11.3201C-210.921 -20.398 -162.515 26.6165 -118.4 29.6308Z" fill="#F9B300"/>
</svg>
