<svg width="362" height="937" viewBox="0 0 362 937" fill="none" xmlns="http://www.w3.org/2000/svg">
<path fill-rule="evenodd" clip-rule="evenodd" d="M439.546 78.5323C506.136 93.3441 580.29 60.4127 637.26 104.654C702.365 155.214 766.571 232.991 771.215 336.103C775.825 438.438 699.659 518.987 660.129 612.382C621.699 703.178 608.164 816.046 543.123 875.002C475.51 936.29 388.946 947.243 313.332 926.735C241.408 907.228 194.387 830.455 141.686 766.123C86.7215 699.028 -0.462661 648.115 0.374608 544.706C1.22102 440.167 104.577 384.019 145.541 289.961C184.252 201.077 163.419 63.2172 231.348 14.3675C299.311 -34.5074 367.167 62.4332 439.546 78.5323Z" fill="#F9B300"/>
</svg>
