<svg width="504" height="1039" viewBox="0 0 504 1039" fill="none" xmlns="http://www.w3.org/2000/svg">
<path fill-rule="evenodd" clip-rule="evenodd" d="M603.719 -82.9969C690.24 -59.698 789.445 -98.5287 861.64 -37.2212C944.144 32.8415 1023.9 138.521 1024.03 273.929C1024.16 408.316 919.563 509.436 862.295 629.529C806.62 746.281 782.334 893.413 693.582 966.883C601.32 1043.26 487.101 1052.56 389.071 1021.27C295.822 991.506 238.562 888.146 173.13 800.757C104.887 709.615 -6.56878 637.802 0.508173 502.325C7.66251 365.368 146.528 297.814 205.717 176.936C261.65 62.7063 242.284 -119.186 334.24 -179.242C426.244 -239.329 509.678 -108.321 603.719 -82.9969Z" fill="#F9B300"/>
</svg>
