<svg width="208" height="1019" viewBox="0 0 208 1019" fill="none" xmlns="http://www.w3.org/2000/svg">
<path fill-rule="evenodd" clip-rule="evenodd" d="M-244.054 59.2444C-160.955 64.6602 -77.3021 16.0967 -0.535828 55.6017C87.1932 100.748 178.728 176.105 202.871 289.238C226.833 401.518 149.309 503.009 118.347 612.668C88.2464 719.276 92.1837 846.172 24.2161 921.984C-46.4391 1000.79 -149.033 1027.12 -244.054 1016.9C-334.439 1007.17 -405.035 930.098 -480.257 867.7C-558.709 802.622 -673.171 760.715 -690.746 646.354C-708.514 530.742 -593.76 451.734 -561.184 341.108C-530.401 236.566 -580.344 87.7123 -507.072 22.5892C-433.763 -42.5676 -334.374 53.3579 -244.054 59.2444Z" fill="#F9B300"/>
</svg>
