<svg width="1904" height="298" viewBox="0 0 1904 298" fill="none" xmlns="http://www.w3.org/2000/svg">
<path fill-rule="evenodd" clip-rule="evenodd" d="M-477 111.75L-367.542 142.792C-258.083 173.833 -39.1667 235.917 179.75 260.75C398.667 285.583 617.583 273.167 836.5 242.125C1055.42 211.083 1274.33 161.417 1493.25 117.958C1712.17 74.5 1931.08 37.25 2040.54 18.625L2150 0V298H2040.54C1931.08 298 1712.17 298 1493.25 298C1274.33 298 1055.42 298 836.5 298C617.583 298 398.667 298 179.75 298C-39.1667 298 -258.083 298 -367.542 298H-477V111.75Z" fill="#FFF7E1"/>
</svg>
