<svg width="1904" height="1201" viewBox="0 0 1904 1201" fill="none" xmlns="http://www.w3.org/2000/svg">
<path fill-rule="evenodd" clip-rule="evenodd" d="M-477 1093L-367.542 1063C-258.083 1033 -39.1667 973 179.75 949C398.667 925 617.583 937 836.5 967C1055.42 997 1274.33 1045 1493.25 1087C1712.17 1129 1931.08 1165 2040.54 1183L2150 1201V913H2040.54C1931.08 913 1712.17 913 1493.25 913C1274.33 913 1055.42 913 836.5 913C617.583 913 398.667 913 179.75 913C-39.1667 913 -258.083 913 -367.542 913H-477V1093Z" fill="#FFF7E1"/>
<rect x="-1" y="288" width="1911" height="637" fill="#FFF7E1"/>
<path fill-rule="evenodd" clip-rule="evenodd" d="M-477 108L-367.542 138C-258.083 168 -39.1667 228 179.75 252C398.667 276 617.583 264 836.5 234C1055.42 204 1274.33 156 1493.25 114C1712.17 72 1931.08 36 2040.54 18L2150 0V288H2040.54C1931.08 288 1712.17 288 1493.25 288C1274.33 288 1055.42 288 836.5 288C617.583 288 398.667 288 179.75 288C-39.1667 288 -258.083 288 -367.542 288H-477V108Z" fill="#FFF7E1"/>
</svg>
