<svg width="454" height="1380" viewBox="0 0 454 1380" fill="none" xmlns="http://www.w3.org/2000/svg">
<path fill-rule="evenodd" clip-rule="evenodd" d="M-219.457 1271.45C-327.987 1252.2 -445.118 1303.89 -540.347 1240.72C-649.174 1168.54 -758.602 1056.05 -773.865 903.699C-789.013 752.495 -672.226 630.284 -615.501 490.537C-560.355 354.68 -547.029 187.166 -446.558 97.3435C-342.114 3.96871 -203.308 -15.7036 -79.795 11.6052C37.6927 37.5819 119.325 149.271 209.182 242.328C302.899 339.383 447.368 411.207 453.811 564.218C460.324 718.902 297.837 806.105 238.85 946.89C183.107 1079.93 227.1 1283.04 121.211 1358.03C15.2666 1433.05 -101.494 1292.36 -219.457 1271.45Z" fill="#F9B300"/>
</svg>
