<svg xmlns="http://www.w3.org/2000/svg">
  <symbol id="bg-puddle" viewBox="0 0 1192 1350" fill="none" >
    <path fill-rule="evenodd" clip-rule="evenodd" d="M594.381 78.937C704.37 86.1054 815.093 21.8263 916.702 74.1155C1032.82 133.872 1153.98 233.615 1185.93 383.359C1217.65 531.974 1115.04 666.308 1074.06 811.454C1034.21 952.561 1039.43 1120.52 949.464 1220.87C855.944 1325.18 720.15 1360.03 594.381 1346.5C474.746 1333.62 381.304 1231.61 281.741 1149.02C177.901 1062.88 26.3986 1007.41 3.13592 856.041C-20.3811 703.017 131.508 598.441 174.625 452.014C215.37 313.641 149.265 116.617 246.248 30.4198C343.28 -55.8225 474.832 71.1456 594.381 78.937Z" fill="currentColor"/>
  </symbol>
  <symbol id="bg-advantages-vawe" viewBox="0 0 1904 288" fill="none">
    <path fill-rule="evenodd" clip-rule="evenodd" d="M-477 108L-367.542 138C-258.083 168 -39.1667 228 179.75 252C398.667 276 617.583 264 836.5 234C1055.42 204 1274.33 156 1493.25 114C1712.17 72 1931.08 36 2040.54 18L2150 0V288H2040.54C1931.08 288 1712.17 288 1493.25 288C1274.33 288 1055.42 288 836.5 288C617.583 288 398.667 288 179.75 288C-39.1667 288 -258.083 288 -367.542 288H-477V108Z" fill="currentColor"/>
  </symbol>
  <symbol id="bg-technology-first-vawe" viewBox="0 0 1904 288" fill="none">
    <path fill-rule="evenodd" clip-rule="evenodd" d="M-477 180L-367.542 150C-258.083 120 -39.1667 60 179.75 36C398.667 12 617.583 24 836.5 54C1055.42 84 1274.33 132 1493.25 174C1712.17 216 1931.08 252 2040.54 270L2150 288V0H2040.54C1931.08 0 1712.17 0 1493.25 0C1274.33 0 1055.42 0 836.5 0C617.583 0 398.667 0 179.75 0C-39.1667 0 -258.083 0 -367.542 0H-477V180Z" fill="currentColor"/>
  </symbol>
  <symbol id="bg-technology-second-vawe" viewBox="0 0 1904 298" fill="none">
    <path fill-rule="evenodd" clip-rule="evenodd" d="M2812 111.75L2674.96 142.792C2537.92 173.833 2263.83 235.917 1989.75 260.75C1715.67 285.583 1441.58 273.167 1167.5 242.125C893.417 211.083 619.333 161.417 345.25 117.958C71.1667 74.5 -202.917 37.25 -339.958 18.625L-477 0V298H-339.958C-202.917 298 71.1667 298 345.25 298C619.333 298 893.417 298 1167.5 298C1441.58 298 1715.67 298 1989.75 298C2263.83 298 2537.92 298 2674.96 298H2812V111.75Z" fill="currentColor"/>
  </symbol>
  <symbol id="bg-news-vawe" viewBox="0 0 1904 298" fill="none">
    <path fill-rule="evenodd" clip-rule="evenodd" d="M-477 111.75L-367.542 142.792C-258.083 173.833 -39.1667 235.917 179.75 260.75C398.667 285.583 617.583 273.167 836.5 242.125C1055.42 211.083 1274.33 161.417 1493.25 117.958C1712.17 74.5 1931.08 37.25 2040.54 18.625L2150 0V298H2040.54C1931.08 298 1712.17 298 1493.25 298C1274.33 298 1055.42 298 836.5 298C617.583 298 398.667 298 179.75 298C-39.1667 298 -258.083 298 -367.542 298H-477V111.75Z" fill="currentColor"/>
  </symbol>
</svg>

