<svg xmlns="http://www.w3.org/2000/svg">
  <symbol id="bg-puddle" viewBox="0 0 1192 1350" fill="none" >
    <path fill-rule="evenodd" clip-rule="evenodd" d="M594.381 78.937C704.37 86.1054 815.093 21.8263 916.702 74.1155C1032.82 133.872 1153.98 233.615 1185.93 383.359C1217.65 531.974 1115.04 666.308 1074.06 811.454C1034.21 952.561 1039.43 1120.52 949.464 1220.87C855.944 1325.18 720.15 1360.03 594.381 1346.5C474.746 1333.62 381.304 1231.61 281.741 1149.02C177.901 1062.88 26.3986 1007.41 3.13592 856.041C-20.3811 703.017 131.508 598.441 174.625 452.014C215.37 313.641 149.265 116.617 246.248 30.4198C343.28 -55.8225 474.832 71.1456 594.381 78.937Z" fill="currentColor"/>
  </symbol>
</svg>

