<svg xmlns="http://www.w3.org/2000/svg">
  <symbol id="bg-puddle" viewBox="0 0 1192 1350" fill="none" >
    <path fill-rule="evenodd" clip-rule="evenodd" d="M594.381 78.937C704.37 86.1054 815.093 21.8263 916.702 74.1155C1032.82 133.872 1153.98 233.615 1185.93 383.359C1217.65 531.974 1115.04 666.308 1074.06 811.454C1034.21 952.561 1039.43 1120.52 949.464 1220.87C855.944 1325.18 720.15 1360.03 594.381 1346.5C474.746 1333.62 381.304 1231.61 281.741 1149.02C177.901 1062.88 26.3986 1007.41 3.13592 856.041C-20.3811 703.017 131.508 598.441 174.625 452.014C215.37 313.641 149.265 116.617 246.248 30.4198C343.28 -55.8225 474.832 71.1456 594.381 78.937Z" fill="currentColor"/>
  </symbol>
  <symbol id="bg-advantages-vawe" viewBox="0 0 1904 288" fill="none">
    <path fill-rule="evenodd" clip-rule="evenodd" d="M-477 108L-367.542 138C-258.083 168 -39.1667 228 179.75 252C398.667 276 617.583 264 836.5 234C1055.42 204 1274.33 156 1493.25 114C1712.17 72 1931.08 36 2040.54 18L2150 0V288H2040.54C1931.08 288 1712.17 288 1493.25 288C1274.33 288 1055.42 288 836.5 288C617.583 288 398.667 288 179.75 288C-39.1667 288 -258.083 288 -367.542 288H-477V108Z" fill="currentColor"/>
  </symbol>
  <symbol id="bg-technology-vawe" viewBox="0 0 1904 288" fill="none">
    <path fill-rule="evenodd" clip-rule="evenodd" d="M-477 180L-367.542 150C-258.083 120 -39.1667 60 179.75 36C398.667 12 617.583 24 836.5 54C1055.42 84 1274.33 132 1493.25 174C1712.17 216 1931.08 252 2040.54 270L2150 288V0H2040.54C1931.08 0 1712.17 0 1493.25 0C1274.33 0 1055.42 0 836.5 0C617.583 0 398.667 0 179.75 0C-39.1667 0 -258.083 0 -367.542 0H-477V180Z" fill="currentColor"/>
  </symbol>

</svg>

