<svg width="1904" height="213" viewBox="0 0 1904 213" fill="none" xmlns="http://www.w3.org/2000/svg">
<path fill-rule="evenodd" clip-rule="evenodd" d="M0 86.125L77.5417 107.271C155.083 128.417 310.167 170.708 465.25 187.625C620.333 204.542 775.417 196.083 930.5 174.938C1085.58 153.792 1240.67 119.958 1395.75 90.3542C1550.83 60.75 1705.92 35.375 1783.46 22.6875L1904 0V213H1783.46C1705.92 213 1550.83 213 1395.75 213C1240.67 213 1085.58 213 930.5 213C775.417 213 620.333 213 465.25 213C310.167 213 155.083 213 77.5417 213H0V86.125Z" fill="#FFF7E1"/>
</svg>
